STARTFONT 2.1
FONT -FontForge-Open Sans Semibold-Demi-R-Normal-Sans-75-720-75-75--373--
SIZE 72 75 75
FONTBOUNDINGBOX 61 69 1 -12
COMMENT "Generated by fontforge, http://fontforge.sourceforge.net"
COMMENT "Digitized data copyright (c) 2011, Google Corporation."
STARTPROPERTIES 37
FOUNDRY "FontForge"
FAMILY_NAME "Open Sans Semibold"
WEIGHT_NAME "Demi"
SLANT "R"
SETWIDTH_NAME "Normal"
ADD_STYLE_NAME "Sans"
PIXEL_SIZE 75
POINT_SIZE 720
RESOLUTION_X 75
RESOLUTION_Y 75
SPACING ""
AVERAGE_WIDTH 0
CHARSET_REGISTRY ""
CHARSET_ENCODING ""
FONTNAME_REGISTRY ""
CHARSET_COLLECTIONS "ISO10646-1"
FONT_NAME "OpenSans-Semibold"
FACE_NAME "Open Sans Semibold"
COPYRIGHT "Digitized data copyright (c) 2011, Google Corporation."
FONT_VERSION "1.10"
FONT_ASCENT 60
FONT_DESCENT 15
UNDERLINE_POSITION -8
UNDERLINE_THICKNESS 4
RAW_ASCENT 799
RAW_DESCENT 200
NORM_SPACE 19
RELATIVE_WEIGHT 60
RELATIVE_SETWIDTH 50
SUPERSCRIPT_X 0
SUPERSCRIPT_Y 35
SUPERSCRIPT_SIZE 48
SUBSCRIPT_X 0
SUBSCRIPT_Y 10
SUBSCRIPT_SIZE 48
FIGURE_WIDTH 43
AVG_UPPERCASE_WIDTH 690
ENDPROPERTIES
CHARS 33
STARTCHAR space
ENCODING 32
SWIDTH 259 0
DWIDTH 19 0
BBX 1 1 0 0
BITMAP
00
ENDCHAR
STARTCHAR exclam
ENCODING 33
SWIDTH 275 0
DWIDTH 21 0
BBX 11 55 5 -1
BITMAP
FFE0
FFC0
7FC0
7FC0
7FC0
7FC0
7FC0
7FC0
7FC0
7FC0
7FC0
7FC0
7FC0
7FC0
7FC0
7FC0
7FC0
7FC0
7FC0
7FC0
7FC0
7F80
3F80
3F80
3F80
3F80
3F80
3F80
3F80
3F80
3F80
3F80
3F80
3F80
3F80
3F80
3F80
3F80
0000
0000
0000
0000
0000
0000
1F00
7F80
7FC0
FFE0
FFE0
FFE0
FFE0
FFE0
7FC0
7F80
1F00
ENDCHAR
STARTCHAR quotedbl
ENCODING 34
SWIDTH 436 0
DWIDTH 33 0
BBX 23 19 5 35
BITMAP
FF01FE
FF01FE
FF01FE
FF01FE
FF01FE
FF01FE
FF01FE
7F01FC
7F01FC
7F01FC
7F01FC
7F01FC
7E00FC
7E00FC
7E00FC
7E00FC
7E00FC
7E00FC
7E00FC
ENDCHAR
STARTCHAR numbersign
ENCODING 35
SWIDTH 645 0
DWIDTH 48 0
BBX 44 54 2 0
BITMAP
0000FC00FC00
0000FC01FC00
0001FC01FC00
0001FC01F800
0001FC01F800
0001FC01F800
0001F803F800
0001F803F800
0003F803F000
0003F803F000
0003F803F000
0003F003F000
0003F007F000
0003F007F000
0007F007E000
0007F007E000
3FFFFFFFFFF0
3FFFFFFFFFF0
3FFFFFFFFFF0
3FFFFFFFFFF0
3FFFFFFFFFF0
3FFFFFFFFFF0
000FC01FC000
000FC01FC000
000FC01F8000
001FC01F8000
001FC01F8000
001F803F8000
001F803F8000
003F803F0000
003F803F0000
003F803F0000
FFFFFFFFFFC0
FFFFFFFFFFC0
FFFFFFFFFFC0
FFFFFFFFFFC0
FFFFFFFFFFC0
FFFFFFFFFFC0
007E00FE0000
007E00FE0000
00FE00FC0000
00FE00FC0000
00FE01FC0000
00FC01FC0000
00FC01FC0000
01FC01F80000
01FC01F80000
01FC03F80000
01F803F80000
01F803F80000
01F803F80000
03F803F00000
03F803F00000
03F807F00000
ENDCHAR
STARTCHAR dollar
ENCODING 36
SWIDTH 570 0
DWIDTH 43 0
BBX 35 62 4 -5
BITMAP
0001F00000
0001F00000
0001F00000
0001F00000
0001F00000
0001F00000
0007FF8000
007FFFFC00
01FFFFFF80
07FFFFFFC0
0FFFFFFFC0
1FFFFFFF80
3FFFFFFF80
7FFDF0FF00
7FE1F00F00
7FC1F00100
7F81F00000
FF81F00000
FF81F00000
FF81F00000
FF81F00000
7FC1F00000
7FE1F00000
7FF1F00000
3FFFF00000
3FFFF00000
1FFFF00000
0FFFFE0000
07FFFF8000
01FFFFE000
00FFFFF800
001FFFFC00
0007FFFF00
0001FFFF80
0001FFFF80
0001F7FFC0
0001F1FFC0
0001F07FE0
0001F03FE0
0001F03FE0
0001F03FE0
0001F03FE0
0001F03FE0
0001F03FE0
E001F07FC0
FC01F0FFC0
FFC1F7FFC0
FFFFFFFF80
FFFFFFFF00
FFFFFFFE00
FFFFFFFC00
7FFFFFF000
0FFFFFC000
00FFFC0000
0001F00000
0001F00000
0001F00000
0001F00000
0001F00000
0001F00000
0001F00000
0001F00000
ENDCHAR
STARTCHAR percent
ENCODING 37
SWIDTH 861 0
DWIDTH 65 0
BBX 59 55 3 -1
BITMAP
00FE0000007F0000
03FFC00000FE0000
0FFFE00001FE0000
1FFFF00001FC0000
1FFFF80003F80000
3FFFFC0003F80000
3FC3FC0007F00000
7F81FC0007F00000
7F01FE000FE00000
7F00FE000FE00000
7F00FE001FC00000
FF00FE003FC00000
FE00FF003F800000
FE007F007F800000
FE007F007F000000
FE007F00FE000000
FE007F00FE000000
FE007F01FC000000
FE007F01FC000000
FE007F03F8000000
FE00FF07F8000000
FF00FF07F01FC000
7F00FE0FF07FF800
7F00FE0FE0FFFC00
7F01FE1FC1FFFE00
7F81FE1FC3FFFF00
3FC3FC3F87FFFF00
3FFFFC3F87F87F80
1FFFF87F0FF03F80
0FFFF07F0FE03FC0
07FFE0FE0FE01FC0
03FFC1FE0FE01FC0
00FF01FC1FE01FC0
000003F81FE00FE0
000003F81FC00FE0
000007F01FC00FE0
000007F01FC00FE0
00000FE01FC00FE0
00000FE01FC00FE0
00001FC01FC00FE0
00003FC01FC00FE0
00003F801FC00FE0
00007F001FE00FE0
00007F000FE01FE0
0000FE000FE01FC0
0000FE000FE01FC0
0001FC000FE03FC0
0001FC0007F03FC0
0003F80007F87F80
0007F80003FFFF80
0007F00003FFFF00
000FE00001FFFE00
000FE00000FFFC00
001FC000007FF800
00000000001FC000
ENDCHAR
STARTCHAR ampersand
ENCODING 38
SWIDTH 740 0
DWIDTH 56 0
BBX 51 55 4 -1
BITMAP
0003FF00000000
001FFFE0000000
007FFFF8000000
00FFFFFC000000
01FFFFFE000000
03FFFFFF000000
03FFFFFF000000
07FF03FF800000
07FC01FF800000
07F800FF800000
0FF8007F800000
0FF8007F800000
0FF8007F800000
0FF8007F800000
07F800FF800000
07F800FF800000
07FC01FF000000
03FC03FF000000
03FE07FE000000
01FF0FFC000000
01FFBFF8000000
00FFFFF0000000
007FFFE0000000
003FFFC0000000
003FFF00000000
007FFE00000000
01FFFE00000000
03FFFF0000FF80
07FFFF8000FF80
0FFFFFC001FF00
1FFCFFE001FF00
3FF87FF001FF00
7FF03FF803FE00
7FE01FFE03FE00
FFC00FFF07FC00
FF8007FF87FC00
FF8003FFCFF800
FF8001FFFFF800
FF8000FFFFF000
FF80007FFFF000
FF80003FFFE000
FF80001FFFC000
FF80000FFFC000
FFC00007FF8000
FFE0000FFFC000
FFF0003FFFE000
7FFC01FFFFF000
7FFFFFFFFFF800
3FFFFFFFFFFC00
1FFFFFFFCFFE00
0FFFFFFF87FF00
07FFFFFE03FF80
01FFFFF801FFC0
007FFFE000FFE0
000FFE00000000
ENDCHAR
STARTCHAR quotesingle
ENCODING 39
SWIDTH 243 0
DWIDTH 18 0
BBX 8 19 5 35
BITMAP
FF
FF
FF
FF
FF
FF
FF
FF
FF
7F
7E
7E
7E
7E
7E
7E
7E
7E
7E
ENDCHAR
STARTCHAR parenleft
ENCODING 40
SWIDTH 316 0
DWIDTH 24 0
BBX 18 66 3 -12
BITMAP
001FC0
003FC0
007F80
007F00
00FF00
01FE00
01FE00
03FC00
03FC00
07F800
07F800
0FF000
0FF000
1FF000
1FE000
1FE000
3FE000
3FC000
3FC000
3FC000
7F8000
7F8000
7F8000
7F8000
7F8000
FF8000
FF0000
FF0000
FF0000
FF0000
FF0000
FF0000
FF0000
FF0000
FF0000
FF0000
FF0000
FF0000
FF0000
FF0000
FF0000
7F8000
7F8000
7F8000
7F8000
7F8000
7FC000
3FC000
3FC000
3FC000
1FE000
1FE000
1FE000
0FF000
0FF000
07F800
07F800
07FC00
03FC00
01FE00
01FE00
00FF00
00FF00
007F80
003FC0
001FC0
ENDCHAR
STARTCHAR parenright
ENCODING 41
SWIDTH 316 0
DWIDTH 24 0
BBX 18 66 3 -12
BITMAP
FE0000
FF0000
7F8000
3F8000
3FC000
1FE000
1FE000
0FF000
0FF000
07F800
07F800
03FC00
03FC00
03FE00
01FE00
01FE00
01FF00
00FF00
00FF00
00FF00
007F80
007F80
007F80
007F80
007F80
007F80
003FC0
003FC0
003FC0
003FC0
003FC0
003FC0
003FC0
003FC0
003FC0
003FC0
003FC0
003FC0
003FC0
003FC0
007FC0
007F80
007F80
007F80
007F80
007F80
00FF00
00FF00
00FF00
00FF00
01FE00
01FE00
01FE00
03FC00
03FC00
07F800
07F800
0FF000
0FF000
1FE000
1FE000
3FC000
3FC000
7F8000
FF0000
FE0000
ENDCHAR
STARTCHAR asterisk
ENCODING 42
SWIDTH 547 0
DWIDTH 41 0
BBX 35 34 3 23
BITMAP
0007FC0000
0007F80000
0007F80000
0003F80000
0003F80000
0003F80000
0003F80000
0003F80000
0003F80000
0003F80000
6003F000C0
7E03F00FC0
7FC1F07FC0
FFFDF7FFE0
FFFFFFFFE0
FFFFFFFFE0
FFFFFFFFE0
FFFFFFFFE0
00FFFFC000
000FFE0000
000FFE0000
001FFF0000
003FBF8000
007FBFC000
007F1FC000
00FF1FE000
01FE0FF000
03FE0FF800
03FC07F800
07FC07FC00
07F803FC00
01F803F000
007801C000
0010010000
ENDCHAR
STARTCHAR plus
ENCODING 43
SWIDTH 570 0
DWIDTH 43 0
BBX 35 37 4 8
BITMAP
0003F80000
0003F80000
0003F80000
0003F80000
0003F80000
0003F80000
0003F80000
0003F80000
0003F80000
0003F80000
0003F80000
0003F80000
0003F80000
0003F80000
0003F80000
FFFFFFFFE0
FFFFFFFFE0
FFFFFFFFE0
FFFFFFFFE0
FFFFFFFFE0
FFFFFFFFE0
FFFFFFFFE0
0003F80000
0003F80000
0003F80000
0003F80000
0003F80000
0003F80000
0003F80000
0003F80000
0003F80000
0003F80000
0003F80000
0003F80000
0003F80000
0003F80000
0003F80000
ENDCHAR
STARTCHAR comma
ENCODING 44
SWIDTH 267 0
DWIDTH 20 0
BBX 13 18 2 -9
BITMAP
0FF8
0FF8
0FF8
1FF0
1FF0
1FF0
1FE0
1FE0
3FE0
3FC0
3FC0
3F80
3F80
7F80
7F00
7F00
7E00
FE00
ENDCHAR
STARTCHAR hyphen
ENCODING 45
SWIDTH 321 0
DWIDTH 24 0
BBX 18 7 3 17
BITMAP
FFFFC0
FFFFC0
FFFFC0
FFFFC0
FFFFC0
FFFFC0
FFFFC0
ENDCHAR
STARTCHAR period
ENCODING 46
SWIDTH 274 0
DWIDTH 21 0
BBX 11 11 5 -1
BITMAP
1F00
7F80
7FC0
FFE0
FFE0
FFE0
FFE0
FFE0
7FC0
7F80
1F00
ENDCHAR
STARTCHAR slash
ENCODING 47
SWIDTH 390 0
DWIDTH 29 0
BBX 27 54 1 0
BITMAP
00001FE0
00001FE0
00003FC0
00003FC0
00003FC0
00007F80
00007F80
00007F80
0000FF00
0000FF00
0001FF00
0001FE00
0001FE00
0003FC00
0003FC00
0003FC00
0007F800
0007F800
0007F800
000FF000
000FF000
001FF000
001FE000
001FE000
003FC000
003FC000
003FC000
007F8000
007F8000
007F8000
00FF0000
00FF0000
01FF0000
01FE0000
01FE0000
03FC0000
03FC0000
03FC0000
07F80000
07F80000
0FF80000
0FF00000
0FF00000
1FF00000
1FE00000
1FE00000
3FC00000
3FC00000
3FC00000
7F800000
7F800000
FF800000
FF000000
FF000000
ENDCHAR
STARTCHAR zero
ENCODING 48
SWIDTH 570 0
DWIDTH 43 0
BBX 37 55 3 -1
BITMAP
0003FE0000
001FFFC000
007FFFF000
00FFFFF800
01FFFFFC00
03FFFFFE00
07FFFFFF00
0FFF07FF00
0FFC01FF80
1FF800FFC0
1FF0007FC0
3FE0003FC0
3FE0003FE0
3FE0003FE0
3FC0001FE0
7FC0001FF0
7FC0001FF0
7FC0001FF0
7F80000FF0
7F80000FF0
7F80000FF0
FF80000FF0
FF80000FF8
FF80000FF8
FF80000FF8
FF80000FF8
FF80000FF8
FF80000FF8
FF80000FF8
FF80000FF8
FF80000FF8
FF80000FF8
FF80000FF8
FF80000FF8
7F80000FF0
7F80000FF0
7F80000FF0
7FC0001FF0
7FC0001FF0
7FC0001FF0
3FC0001FE0
3FE0003FE0
3FE0003FE0
1FE0003FE0
1FF0007FC0
1FF800FFC0
0FFC01FF80
0FFF07FF80
07FFFFFF00
03FFFFFE00
01FFFFFC00
00FFFFF800
007FFFF000
001FFFC000
0003FE0000
ENDCHAR
STARTCHAR one
ENCODING 49
SWIDTH 570 0
DWIDTH 43 0
BBX 23 54 6 0
BITMAP
0001FE
0003FE
000FFE
001FFE
003FFE
007FFE
01FFFE
03FFFE
07FFFE
1FFFFE
3FFBFE
7FF3FE
FFE3FE
7FC3FE
7F03FE
3E03FE
1C03FE
0803FE
0003FE
0003FE
0003FE
0003FE
0003FE
0003FE
0003FE
0003FE
0003FE
0003FE
0003FE
0003FE
0003FE
0003FE
0003FE
0003FE
0003FE
0003FE
0003FE
0003FE
0003FE
0003FE
0003FE
0003FE
0003FE
0003FE
0003FE
0003FE
0003FE
0003FE
0003FE
0003FE
0003FE
0003FE
0003FE
0003FE
ENDCHAR
STARTCHAR two
ENCODING 50
SWIDTH 570 0
DWIDTH 43 0
BBX 37 54 3 0
BITMAP
0007FE0000
007FFFE000
01FFFFF000
07FFFFFC00
1FFFFFFE00
3FFFFFFF00
7FFFFFFF80
7FFC07FF80
3FE001FFC0
1F8000FFC0
0F00007FC0
0400003FE0
0000003FE0
0000003FE0
0000003FE0
0000003FE0
0000003FE0
0000003FE0
0000003FC0
0000007FC0
0000007FC0
000000FF80
000000FF80
000001FF00
000003FF00
000003FE00
000007FC00
00000FFC00
00001FF800
00003FF000
00007FE000
0000FFC000
0001FF8000
0003FF0000
0007FE0000
000FFC0000
001FF80000
003FF00000
007FE00000
00FFC00000
01FF800000
03FF000000
07FE000000
0FF8000000
1FF0000000
3FE0000000
7FFFFFFFF8
FFFFFFFFF8
FFFFFFFFF8
FFFFFFFFF8
FFFFFFFFF8
FFFFFFFFF8
FFFFFFFFF8
FFFFFFFFF8
ENDCHAR
STARTCHAR three
ENCODING 51
SWIDTH 570 0
DWIDTH 43 0
BBX 36 55 3 -1
BITMAP
000FFE0000
00FFFFE000
07FFFFF800
1FFFFFFC00
7FFFFFFE00
FFFFFFFF00
7FFFFFFF80
3FF807FFC0
1F8001FFC0
1E0000FFC0
0C00007FE0
0000003FE0
0000003FE0
0000003FE0
0000003FE0
0000003FE0
0000003FC0
0000007FC0
0000007FC0
000000FF80
000001FF00
000003FF00
00003FFE00
00FFFFF800
00FFFFF000
00FFFF8000
00FFFF8000
00FFFFF800
00FFFFFE00
00FFFFFF00
00001FFF80
000001FFC0
000000FFE0
0000003FE0
0000003FF0
0000001FF0
0000001FF0
0000001FF0
0000001FF0
0000001FF0
0000001FF0
0000001FF0
0000001FF0
0000003FF0
0000007FE0
C00000FFE0
F80001FFE0
FF800FFFC0
FFFFFFFF80
FFFFFFFF00
FFFFFFFE00
FFFFFFFC00
7FFFFFF000
0FFFFFC000
00FFF80000
ENDCHAR
STARTCHAR four
ENCODING 52
SWIDTH 570 0
DWIDTH 43 0
BBX 41 54 1 0
BITMAP
0000007F8000
000000FF8000
000001FF8000
000001FF8000
000003FF8000
000007FF8000
00000FFF8000
00000FFF8000
00001FFF8000
00003FFF8000
00003FFF8000
00007F7F8000
0000FF7F8000
0000FE7F8000
0001FC7F8000
0003FC7F8000
0003F87F8000
0007F87F8000
000FF07F8000
000FE07F8000
001FC07F8000
003FC07F8000
007F807F8000
007F007F8000
00FF007F8000
01FE007F8000
01FC007F8000
03FC007F8000
07F8007F8000
07F0007F8000
0FF0007F8000
1FE0007F8000
1FC0007F8000
3FC0007F8000
7F80007F8000
FFFFFFFFFF80
FFFFFFFFFF80
FFFFFFFFFF80
FFFFFFFFFF80
FFFFFFFFFF80
FFFFFFFFFF80
FFFFFFFFFF80
0000007F8000
0000007F8000
0000007F8000
0000007F8000
0000007F8000
0000007F8000
0000007F8000
0000007F8000
0000007F8000
0000007F8000
0000007F8000
0000007F8000
ENDCHAR
STARTCHAR five
ENCODING 53
SWIDTH 570 0
DWIDTH 43 0
BBX 35 55 4 -1
BITMAP
1FFFFFFE00
1FFFFFFE00
1FFFFFFE00
1FFFFFFE00
1FFFFFFE00
1FFFFFFE00
1FFFFFFE00
1FFFFFFE00
1FE0000000
1FE0000000
1FE0000000
1FE0000000
3FE0000000
3FE0000000
3FC0000000
3FC0000000
3FC0000000
3FC0000000
3FC0000000
3FC0000000
3FCFFE0000
3FFFFFC000
3FFFFFF000
3FFFFFF800
3FFFFFFE00
7FFFFFFF00
3FFFFFFF00
0F801FFF80
000003FF80
000001FFC0
000000FFC0
0000007FE0
0000007FE0
0000003FE0
0000003FE0
0000003FE0
0000003FE0
0000003FE0
0000003FE0
0000003FE0
0000003FE0
0000003FE0
0000007FC0
0000007FC0
000000FFC0
C00001FF80
F80007FF80
FF801FFF00
FFFFFFFE00
FFFFFFFC00
FFFFFFF800
FFFFFFF000
7FFFFFC000
1FFFFF0000
01FFF00000
ENDCHAR
STARTCHAR six
ENCODING 54
SWIDTH 570 0
DWIDTH 43 0
BBX 37 55 3 -1
BITMAP
00000FFF00
0000FFFF80
0003FFFF80
000FFFFF80
003FFFFF80
007FFFFF80
00FFFFFF80
01FFF80080
03FFC00000
03FF000000
07FE000000
0FFC000000
0FF8000000
1FF0000000
1FE0000000
1FE0000000
3FE0000000
3FC0000000
3FC0000000
3FC0000000
7F807FC000
7F83FFF800
7F87FFFE00
7F9FFFFF00
7FBFFFFF80
7FBFFFFFC0
7FFFFFFFC0
7FFF01FFE0
FFFC007FE0
FFF0003FF0
FFE0001FF0
FFE0001FF0
FFC0000FF8
FFC0000FF8
7F80000FF8
7F80000FF8
7F80000FF8
7F80000FF8
7F80000FF8
7FC0000FF8
7FC0000FF8
3FC0000FF8
3FE0000FF0
3FE0001FF0
1FF0001FF0
1FF8003FE0
0FFC007FE0
07FF01FFC0
07FFFFFFC0
03FFFFFF80
01FFFFFF00
00FFFFFE00
003FFFF800
000FFFE000
0001FF0000
ENDCHAR
STARTCHAR seven
ENCODING 55
SWIDTH 570 0
DWIDTH 43 0
BBX 37 54 3 0
BITMAP
FFFFFFFFF8
FFFFFFFFF8
FFFFFFFFF8
FFFFFFFFF8
FFFFFFFFF8
FFFFFFFFF8
FFFFFFFFF8
FFFFFFFFF0
0000001FF0
0000001FE0
0000001FE0
0000003FE0
0000003FC0
0000007FC0
0000007F80
000000FF80
000000FF00
000001FF00
000001FE00
000003FE00
000003FE00
000007FC00
000007FC00
000007F800
00000FF800
00000FF000
00001FF000
00001FE000
00003FE000
00003FE000
00007FC000
00007FC000
0000FF8000
0000FF8000
0001FF0000
0001FF0000
0001FE0000
0003FE0000
0003FE0000
0007FC0000
0007FC0000
000FF80000
000FF80000
001FF00000
001FF00000
003FE00000
003FE00000
007FE00000
007FC00000
00FFC00000
00FF800000
00FF800000
01FF000000
01FF000000
ENDCHAR
STARTCHAR eight
ENCODING 56
SWIDTH 570 0
DWIDTH 43 0
BBX 37 55 3 -1
BITMAP
0007FF0000
003FFFE000
00FFFFF800
03FFFFFE00
07FFFFFF00
0FFFFFFF80
0FFFFFFF80
1FFE03FFC0
1FF800FFC0
3FF0007FE0
3FE0003FE0
3FE0003FE0
3FC0001FE0
3FC0001FE0
3FC0001FE0
3FE0003FE0
3FE0003FC0
1FF0007FC0
1FF800FF80
0FFC01FF80
0FFF03FF00
07FFCFFE00
03FFFFFC00
00FFFFF800
007FFFE000
003FFF8000
003FFFE000
00FFFFF800
03FFFFFC00
07FFBFFE00
0FFE0FFF80
1FFC03FF80
1FF000FFC0
3FE0007FE0
7FC0003FE0
7FC0001FF0
7F80000FF0
FF80000FF0
FF80000FF8
FF80000FF8
FF80000FF8
FF80000FF8
FF80000FF8
FF80000FF0
7FC0001FF0
7FE0003FF0
7FF0007FE0
3FFE03FFE0
3FFFFFFFC0
1FFFFFFF80
0FFFFFFF00
07FFFFFE00
01FFFFFC00
007FFFE000
0007FF0000
ENDCHAR
STARTCHAR nine
ENCODING 57
SWIDTH 570 0
DWIDTH 43 0
BBX 37 55 3 -1
BITMAP
0007FC0000
003FFF8000
00FFFFE000
01FFFFF800
07FFFFFC00
0FFFFFFE00
0FFFFFFF00
1FFE07FF80
3FF801FF80
3FE000FFC0
7FE0007FC0
7FC0003FE0
7FC0003FE0
7F80001FE0
FF80001FF0
FF80000FF0
FF80000FF0
FF80000FF0
FF80000FF0
FF80000FF0
FF80000FF8
FF80000FF8
FF80001FF8
7FC0001FF8
7FC0003FF8
7FE0007FF8
3FF001FFF8
3FFC07FFF8
1FFFFFFFF8
1FFFFFEFF0
0FFFFFEFF0
07FFFFCFF0
03FFFF0FF0
00FFFE0FF0
001FF00FF0
0000001FF0
0000001FE0
0000001FE0
0000001FE0
0000003FC0
0000003FC0
0000007FC0
000000FF80
000000FF80
000003FF00
000007FF00
00001FFE00
0C00FFFC00
0FFFFFF800
0FFFFFF000
0FFFFFE000
0FFFFF8000
0FFFFE0000
0FFFF80000
07FF800000
ENDCHAR
STARTCHAR colon
ENCODING 58
SWIDTH 274 0
DWIDTH 21 0
BBX 11 42 5 -1
BITMAP
1F00
7FC0
7FC0
FFE0
FFE0
FFE0
FFE0
FFE0
7FC0
7F80
1F00
0000
0000
0000
0000
0000
0000
0000
0000
0000
0000
0000
0000
0000
0000
0000
0000
0000
0000
0000
0000
1F00
7F80
7FC0
FFE0
FFE0
FFE0
FFE0
FFE0
7FC0
7F80
1F00
ENDCHAR
STARTCHAR semicolon
ENCODING 59
SWIDTH 277 0
DWIDTH 21 0
BBX 14 50 2 -9
BITMAP
07E0
0FF0
1FF8
1FF8
1FFC
1FFC
1FFC
1FF8
1FF8
0FF0
03E0
0000
0000
0000
0000
0000
0000
0000
0000
0000
0000
0000
0000
0000
0000
0000
0000
0000
0000
0000
0000
0000
0FF8
0FF8
0FF8
0FF0
1FF0
1FF0
1FE0
1FE0
1FE0
3FC0
3FC0
3F80
3F80
7F80
7F00
7F00
7E00
FE00
ENDCHAR
STARTCHAR less
ENCODING 60
SWIDTH 570 0
DWIDTH 43 0
BBX 35 38 4 8
BITMAP
0000000020
00000000E0
00000003E0
0000000FE0
0000003FE0
000000FFE0
000003FFE0
00000FFFE0
00003FFF80
0000FFFC00
0003FFF000
000FFFC000
003FFF0000
00FFFC0000
03FFF00000
0FFFC00000
3FFE000000
FFF8000000
FFE0000000
FF80000000
FFC0000000
FFF8000000
FFFE000000
3FFFC00000
07FFF00000
01FFFE0000
007FFF8000
001FFFE000
0003FFFC00
0000FFFF00
00003FFFE0
000007FFE0
000001FFE0
0000007FE0
0000001FE0
00000003E0
00000000E0
0000000020
ENDCHAR
STARTCHAR equal
ENCODING 61
SWIDTH 570 0
DWIDTH 43 0
BBX 35 21 4 16
BITMAP
FFFFFFFFE0
FFFFFFFFE0
FFFFFFFFE0
FFFFFFFFE0
FFFFFFFFE0
FFFFFFFFE0
FFFFFFFFE0
0000000000
0000000000
0000000000
0000000000
0000000000
0000000000
0000000000
FFFFFFFFE0
FFFFFFFFE0
FFFFFFFFE0
FFFFFFFFE0
FFFFFFFFE0
FFFFFFFFE0
FFFFFFFFE0
ENDCHAR
STARTCHAR greater
ENCODING 62
SWIDTH 570 0
DWIDTH 43 0
BBX 35 38 4 8
BITMAP
8000000000
E000000000
F800000000
FE00000000
FF80000000
FFE0000000
FFF8000000
FFFE000000
3FFF800000
07FFE00000
01FFF80000
007FFE0000
001FFF8000
0007FFE000
0001FFF800
00007FFE00
00000FFF80
000003FFE0
000000FFE0
0000003FE0
0000007FE0
000003FFE0
00000FFFE0
00007FFF80
0001FFFC00
000FFFF000
003FFFC000
00FFFF0000
07FFF80000
1FFFE00000
FFFF800000
FFFC000000
FFF0000000
FFC0000000
FF00000000
F800000000
E000000000
8000000000
ENDCHAR
STARTCHAR question
ENCODING 63
SWIDTH 453 0
DWIDTH 34 0
BBX 31 55 1 -1
BITMAP
003FF800
03FFFF00
1FFFFFC0
7FFFFFE0
FFFFFFF0
FFFFFFF8
7FFFFFF8
7FC01FFC
3E0007FC
380003FE
000003FE
000001FE
000001FE
000001FE
000001FE
000001FE
000003FE
000003FE
000007FC
00000FFC
00001FF8
00003FF0
00007FF0
0000FFE0
0001FFC0
0003FF00
0007FE00
000FFC00
001FF800
001FF000
003FE000
003FC000
003F8000
007F8000
007F8000
007F8000
007F8000
007F8000
00000000
00000000
00000000
00000000
00000000
00000000
001F0000
007F8000
00FFC000
00FFC000
00FFE000
00FFE000
00FFE000
00FFC000
00FFC000
007F8000
001F0000
ENDCHAR
STARTCHAR M
ENCODING 77
SWIDTH 922 0
DWIDTH 69 0
BBX 55 54 7 0
BITMAP
FFF80000003FFE
FFF80000003FFE
FFF80000003FFE
FFFC0000007FFE
FFFC0000007FFE
FFFC0000007FFE
FFFE000000FFFE
FFFE000000FFFE
FFFE000000FFFE
FEFF000001FFFE
FEFF000001FDFE
FF7F000001FDFE
FF7F800003FDFE
FF7F800003F9FE
FF3F800007F9FE
FF3FC00007F9FE
FF3FC00007F1FE
FF1FC0000FF1FE
FF1FE0000FE1FE
FF1FE0000FE1FE
FF0FE0001FE1FE
FF0FF0001FC1FE
FF0FF0001FC1FE
FF07F0003FC1FE
FF07F8003F81FE
FF07F8003F81FE
FF03FC007F81FE
FF03FC007F01FE
FF03FC00FF01FE
FF01FE00FF01FE
FF01FE00FE01FE
FF01FE01FE01FE
FF00FF01FC01FE
FF00FF01FC01FE
FF00FF03FC01FE
FF007F83F801FE
FF007F83F801FE
FF007F87F801FE
FF003FC7F001FE
FF003FC7F001FE
FF003FCFF001FE
FF001FEFE001FE
FF001FEFE001FE
FF000FFFE001FE
FF000FFFC001FE
FF000FFFC001FE
FF0007FFC001FE
FF0007FF8001FE
FF0007FF8001FE
FF0003FF0001FE
FF0003FF0001FE
FF0003FF0001FE
FF0001FE0001FE
FF0001FE0001FE
ENDCHAR
ENDFONT
